<?xml version="1.0" encoding="UTF-8"?>
<svg version="1.1" xmlns="http://www.w3.org/2000/svg" width="1080" height="1350">
<path d="M0 0 C-0.00481916 3.71556987 -0.17626266 5.95805057 -2.51513672 8.91650391 C-4.59564387 10.96053835 -6.73919976 12.89571773 -8.9375 14.8125 C-10.49956893 16.22820619 -12.06077084 17.64486966 -13.62109375 19.0625 C-14.75587158 20.07957031 -14.75587158 20.07957031 -15.91357422 21.1171875 C-23.69082873 28.13546351 -30.55062141 35.75329364 -37 44 C-37.48871582 44.61762207 -37.97743164 45.23524414 -38.48095703 45.87158203 C-67.7211715 82.89237712 -92.23252469 128.53875901 -102 175 C-102.1757959 175.83450684 -102.3515918 176.66901367 -102.53271484 177.52880859 C-112.47342684 225.97745454 -112.63295747 274.67787793 -89.72265625 319.48046875 C-88 323 -88 323 -88 325 C-87.34 325 -86.68 325 -86 325 C-84.80859375 326.8359375 -84.80859375 326.8359375 -83.4375 329.375 C-80.46681712 334.54973793 -76.87620882 338.67365681 -72.7578125 342.96875 C-71 345 -71 345 -71 347 C-70.34 347 -69.68 347 -69 347 C-66.46781433 349.39531077 -64.08609223 351.90925414 -61.6875 354.4375 C-58.82504808 357.16681462 -55.80798795 359.40253709 -52.57421875 361.66796875 C-52.05472656 362.10753906 -51.53523438 362.54710937 -51 363 C-51 363.66 -51 364.32 -51 365 C-50.26394531 365.27457031 -49.52789062 365.54914063 -48.76953125 365.83203125 C-46.18003083 366.92407726 -44.03928972 368.16280507 -41.6875 369.6875 C-24.98233072 379.81933344 -6.38382602 385.38428862 13 387 C13.99652588 387.0925708 13.99652588 387.0925708 15.01318359 387.18701172 C32.16902451 388.74288182 49.2367728 388.09424443 66 384 C65.67 383.01 65.34 382.02 65 381 C64.34 381 63.68 381 63 381 C56.76703051 370.24627991 51.20696139 359.72658997 47 348 C46.54882812 346.78957031 46.09765625 345.57914063 45.6328125 344.33203125 C36.17133242 317.76710642 35.33960911 285.73397703 45 259 C50.89635557 247.03386664 59.58598848 236.45174772 72 231 C81.63823096 227.80613263 91.03617967 226.66363592 100.4296875 231.1640625 C109.55283831 236.81473376 116.50660343 244.88742452 122 254 C122.53367187 253.24976563 123.06734375 252.49953125 123.6171875 251.7265625 C132.50984749 239.51069394 141.23328667 229.92223778 156 225 C169.53343093 224.05328063 181.32750059 225.77685237 192 235 C192 235.66 192 236.32 192 237 C193.32 237.66 194.64 238.32 196 239 C196 239.66 196 240.32 196 241 C196.99 241.33 197.98 241.66 199 242 C209.13608171 257.42335079 208.46287475 275.61046053 204.89453125 293.01953125 C201.1956312 309.85330084 192.77099641 325.59504813 182 339 C181.30648438 339.92039062 180.61296875 340.84078125 179.8984375 341.7890625 C179.27195312 342.51867187 178.64546875 343.24828125 178 344 C177.34 344 176.68 344 176 344 C175.61062256 344.87724731 175.61062256 344.87724731 175.21337891 345.7722168 C173.91356092 348.15870354 172.51043278 349.73302211 170.5859375 351.64453125 C169.90660156 352.32193359 169.22726562 352.99933594 168.52734375 353.69726562 C167.81707031 354.39529297 167.10679687 355.09332031 166.375 355.8125 C165.68792969 356.49892578 165.00085938 357.18535156 164.29296875 357.89257812 C151.9856949 370.09594441 138.93252336 379.75199606 123.75585938 388.02490234 C120.41499731 389.88021423 117.20894937 391.92755353 114 394 C118.32265963 398.89901424 123.35412341 401.79359899 129 405 C129.78890625 405.49628906 130.5778125 405.99257813 131.390625 406.50390625 C146.62607022 415.67871052 164.60489404 418.23215669 182 420 C183.0012793 420.10296387 184.00255859 420.20592773 185.03417969 420.31201172 C227.09403758 424.52865569 266.86683832 417.61701107 305.77514648 401.33666992 C311.02560548 399.16040654 316.30469488 397.056409 321.584198 394.95178223 C323.55103567 394.16714004 325.51694188 393.38020082 327.48266602 392.59277344 C333.26877435 390.27652943 339.05728295 387.96878537 344.87109375 385.72265625 C361.91442742 380.34341817 361.91442742 380.34341817 375 370 C373.81989473 367.14552188 373.81989473 367.14552188 372.0625 363.875 C371.59348267 362.95424683 371.59348267 362.95424683 371.11499023 362.01489258 C369.37092337 358.5960054 367.57507533 355.20826274 365.75 351.83203125 C358.81039988 338.79848965 358.81039988 338.79848965 360 331 C360.33 330.01 360.66 329.02 361 328 C367.13735169 326.73543578 372.34607484 327.44991664 378.5 328.375 C391.76723668 330.2059458 404.96898156 330.44984316 418.34375 330.53271484 C438.67689559 330.74095649 438.67689559 330.74095649 447.0625 335.875 C452.01306538 341.30465235 452.81166298 346.03253823 452.5546875 353.1953125 C451.95458248 360.30214 449.74596579 367.10753248 447.77856445 373.93237305 C445.43636423 382.10383977 443.68181719 390.21407932 442.41894531 398.61938477 C441.71116909 403.05942597 440.71922228 406.92217311 438.94921875 411.06640625 C436.66782901 416.44062682 436.20871971 421.41075075 435.8671875 427.18164062 C435.42190439 432.52987796 435.42190439 432.52987796 433.22265625 434.98046875 C426.62970316 438.00465286 419.14702496 435.77316716 412.54296875 433.75390625 C410.02731806 432.90872565 410.02731806 432.90872565 407.41796875 432.81640625 C404.32940633 431.77357984 403.53375028 430.16359742 402.07055664 427.33935547 C401.75852295 426.69111816 401.44648926 426.04288086 401.125 425.375 C400.78911865 424.71000488 400.4532373 424.04500977 400.10717773 423.35986328 C399.05052013 421.24952248 398.0231823 419.12674713 397 417 C396.66081543 416.30777344 396.32163086 415.61554688 395.97216797 414.90234375 C394.99149034 412.89820566 394.02327495 410.88874803 393.0625 408.875 C392.76811035 408.26060059 392.4737207 407.64620117 392.17041016 407.01318359 C390.62163936 403.67941998 389.65239305 400.60482596 389 397 C388.11441406 397.39268066 387.22882812 397.78536133 386.31640625 398.18994141 C382.94861754 399.68180363 379.57818678 401.16761892 376.20703125 402.65185547 C374.76362486 403.2882955 373.32088713 403.92625472 371.87890625 404.56591797 C363.43274596 408.31124743 354.96778271 411.87841343 346.27490234 415.01663208 C342.67508469 416.32401891 339.26295583 417.77650987 335.875 419.5625 C330.46903664 422.3818352 324.82926282 424.32084026 319.06787109 426.2890625 C316.83893863 427.05537316 314.6164457 427.83857917 312.39453125 428.625 C308.1418932 430.12983194 303.88074464 431.60900519 299.61767578 433.08398438 C297.05929576 433.97925035 294.51201374 434.90152061 291.96484375 435.828125 C278.21982656 440.73933456 264.39574053 443.68248123 250 446 C248.78538086 446.19754883 247.57076172 446.39509766 246.31933594 446.59863281 C229.13369845 449.32247834 212.39274731 450.79624666 195 450 C194.00838867 449.95601074 193.01677734 449.91202148 191.99511719 449.86669922 C153.58428667 447.92429787 119.79157461 437.55257946 91.25390625 411.04296875 C90.51011719 410.36878906 89.76632812 409.69460938 89 409 C88.32453125 408.20980469 87.6490625 407.41960937 86.953125 406.60546875 C82.02199996 403.92465871 77.44462736 405.85079247 72.1875 407.125 C69.91095394 407.62474152 67.6336067 408.12084745 65.35546875 408.61328125 C63.70490479 408.97800537 63.70490479 408.97800537 62.02099609 409.35009766 C19.97075596 418.39630254 -22.49760001 409.73083106 -58.71875 387.6640625 C-59.84796875 386.84035156 -59.84796875 386.84035156 -61 386 C-61 385.34 -61 384.68 -61 384 C-62.0209375 383.690625 -62.0209375 383.690625 -63.0625 383.375 C-66.91639375 381.57104973 -70.07787764 379.0989655 -73 376 C-73 375.34 -73 374.68 -73 374 C-73.87591797 373.61134766 -73.87591797 373.61134766 -74.76953125 373.21484375 C-85.10574326 367.58513809 -92.99058029 354.75236463 -99.44921875 345.25 C-100.37235284 343.91064173 -101.32416996 342.58932134 -102.33203125 341.3125 C-122.90584417 315.18702327 -128.21466221 270.04787611 -128.25 238.125 C-128.25133942 237.4037796 -128.25267883 236.6825592 -128.25405884 235.93948364 C-128.24936371 224.21121568 -127.47376566 212.84132491 -125.40576172 201.27539062 C-125.03242778 199.1818453 -124.6992832 197.08655285 -124.37890625 194.984375 C-120.1927355 169.71134411 -111.58934779 144.87685956 -101.14257812 121.55664062 C-100.41160466 119.92100941 -99.68819713 118.28196254 -98.97460938 116.63867188 C-88.18140044 91.79513177 -72.56091245 68.37477915 -56 47 C-55.36707031 46.17242187 -54.73414063 45.34484375 -54.08203125 44.4921875 C-44.8570546 32.6613927 -34.38170548 21.42269207 -22.953125 11.6953125 C-21.72012361 10.62506729 -20.51662202 9.51892382 -19.359375 8.3671875 C-14.36929601 3.5466743 -7.0626021 0 0 0 Z M-115 214 C-114 216 -114 216 -114 216 Z M-116 223 C-116 234.55 -116 246.1 -116 258 C-115.67 258 -115.34 258 -115 258 C-115 246.45 -115 234.9 -115 223 C-115.33 223 -115.66 223 -116 223 Z M150.27734375 259.015625 C147.0129241 263.65761304 144.68841543 268.64502505 142.41015625 273.82421875 C140.68698954 277.70492382 138.90304928 281.54873259 137.0625 285.375 C136.75070801 286.05312744 136.43891602 286.73125488 136.11767578 287.42993164 C133.53301666 292.74357429 130.39861404 296.30069298 125 299 C123.21140489 299.12207871 121.41771619 299.17548448 119.625 299.1875 C118.66851562 299.20167969 117.71203125 299.21585938 116.7265625 299.23046875 C113.87316468 298.98927896 112.32763511 298.65236515 110 297 C107.13952426 292.16512182 105.84818403 286.56137345 104.625 281.125 C102.32113137 271.44875174 97.95255919 263.1105719 91 256 C87.93570224 254.46785112 85.3834358 254.77061452 82 255 C76.79168476 257.03251326 73.67645043 261.25123231 71 266 C61.0260241 290.49373169 63.0060295 317.86755358 73.11572266 341.96630859 C78.44519825 354.2232196 84.90559536 365.34029173 93 376 C98.71599776 375.47786559 103.02824877 373.22986653 108 370.5625 C109.25586914 369.89359741 109.25586914 369.89359741 110.53710938 369.21118164 C118.17086764 365.05824803 125.13879388 360.31658136 132 355 C133.46179688 353.87271484 133.46179688 353.87271484 134.953125 352.72265625 C141.369019 347.62399189 147.60666123 342.18888549 153 336 C153 335.34 153 334.68 153 334 C153.66 334 154.32 334 155 334 C156.78388097 331.85019473 158.43460934 329.70200525 160.0625 327.4375 C160.79460693 326.42236328 160.79460693 326.42236328 161.54150391 325.38671875 C174.05988778 307.79991604 184.04271261 289.08168245 181.47265625 266.66015625 C180.35388167 260.36358194 177.95377323 256.21070725 173 252 C163.7436646 248.91455487 156.55299019 251.67269175 150.27734375 259.015625 Z M-115 259 C-115.46112386 267.60764545 -113.72848437 275.61479306 -112 284 C-111.67 284 -111.34 284 -111 284 C-111.65061887 275.61044093 -112.74898749 267.31984045 -114 259 C-114.33 259 -114.66 259 -115 259 Z M-111 284 C-110 288 -110 288 -110 288 Z M-110 288 C-109.67 289.98 -109.34 291.96 -109 294 C-108.3185177 292.10820797 -108.3185177 292.10820797 -108 290 C-108.66 289.34 -109.32 288.68 -110 288 Z M-108 294 C-107 297 -107 297 -107 297 Z M-107 297 C-106 300 -106 300 -106 300 Z M-106 300 C-105 302 -105 302 -105 302 Z M-105 303 C-104 305 -104 305 -104 305 Z M417 393 C417 393.66 417 394.32 417 395 C417.66 394.67 418.32 394.34 419 394 C418.34 393.67 417.68 393.34 417 393 Z M410 405 C410.99 407.97 411.98 410.94 413 414 C415.09715785 410.85426323 415.52004559 408.98543749 416.125 405.3125 C416.29257812 404.31863281 416.46015625 403.32476563 416.6328125 402.30078125 C416.75398437 401.54152344 416.87515625 400.78226563 417 400 C414.59244254 400 411.75431241 403.50696816 410 405 Z " fill="#040304" transform="translate(378,450)"/>
<path d="M0 0 C-0.00481916 3.71556987 -0.17626266 5.95805057 -2.51513672 8.91650391 C-4.59564387 10.96053835 -6.73919976 12.89571773 -8.9375 14.8125 C-10.49956893 16.22820619 -12.06077084 17.64486966 -13.62109375 19.0625 C-14.75587158 20.07957031 -14.75587158 20.07957031 -15.91357422 21.1171875 C-23.69082873 28.13546351 -30.55062141 35.75329364 -37 44 C-37.48871582 44.61762207 -37.97743164 45.23524414 -38.48095703 45.87158203 C-56.34732406 68.49204242 -71.6642651 93.45051564 -83 120 C-83.33 119.34 -83.66 118.68 -84 118 C-84.99 118 -85.98 118 -87 118 C-87.268125 118.86625 -87.53625 119.7325 -87.8125 120.625 C-88.97111987 123.91791964 -90.38209839 126.91127875 -92 130 C-93.32402585 126.02792246 -92.30701963 124.93839799 -90.5 121.22265625 C-89.66275391 119.49112305 -89.66275391 119.49112305 -88.80859375 117.72460938 C-88.36169189 116.82005005 -88.36169189 116.82005005 -87.90576172 115.8972168 C-87.02122242 114.10548827 -86.15297608 112.30574538 -85.28515625 110.50585938 C-81.9856163 103.73843559 -78.46602875 97.17266318 -74.60253906 90.71044922 C-72.41970352 87.01851744 -70.38806895 83.25081381 -68.359375 79.47265625 C-67.4064272 77.73927706 -66.38961432 76.04021129 -65.328125 74.37109375 C-63.75565455 72.01672482 -63.75565455 72.01672482 -64 69 C-62.515 68.505 -62.515 68.505 -61 68 C-59.61517631 66.46497893 -59.61517631 66.46497893 -58.36328125 64.53515625 C-57.87174561 63.82198242 -57.38020996 63.10880859 -56.8737793 62.37402344 C-56.10094604 61.22981934 -56.10094604 61.22981934 -55.3125 60.0625 C-51.22523163 54.09632127 -47.07615277 48.45577034 -42.23046875 43.078125 C-40.72025152 41.00119118 -40.72025152 41.00119118 -41.30078125 38.234375 C-41.64689453 37.12835938 -41.64689453 37.12835938 -42 36 C-42.5775 36.28875 -43.155 36.5775 -43.75 36.875 C-45.83333333 37.91666667 -47.91666667 38.95833333 -50 40 C-45.96815664 34.31859624 -41.59810098 29.30878647 -36.625 24.4375 C-35.96306641 23.78273682 -35.30113281 23.12797363 -34.61914062 22.45336914 C-30.74666551 18.6451497 -26.8465715 14.89297625 -22.671875 11.4140625 C-20.9697574 10.01305582 -20.9697574 10.01305582 -19.390625 8.3984375 C-14.38853114 3.56308011 -7.08515761 0 0 0 Z " fill="#0C0C0D" transform="translate(378,450)"/>
<path d="M0 0 C1.24028363 4.13692048 0.5373616 7.03859791 -0.4375 11.25 C-0.72496094 12.51328125 -1.01242187 13.7765625 -1.30859375 15.078125 C-1.53675781 16.04234375 -1.76492188 17.0065625 -2 18 C-0.68 18.33 0.64 18.66 2 19 C2 17.35 2 15.7 2 14 C2.33 14 2.66 14 3 14 C2.57293574 20.36100975 2.05816193 26.66015861 1.21313477 32.97949219 C-2.49807586 61.8671086 -0.99081672 94.70022945 10 122 C10 122.99 10 123.98 10 125 C9.34 125 8.68 125 8 125 C7.34 126.98 6.68 128.96 6 131 C5.67 131 5.34 131 5 131 C5 129.35 5 127.7 5 126 C4.34 125.67 3.68 125.34 3 125 C2.25390625 122.69921875 2.25390625 122.69921875 1.5625 119.6875 C0.60372257 115.58258358 -0.40211316 111.50715382 -1.5 107.4375 C-5.10877731 92.70669247 -6.50652665 78.03396088 -6.76342773 62.89697266 C-6.81333632 60.07775847 -6.88892116 57.25997345 -6.96679688 54.44140625 C-7.00670337 52.63024066 -7.04517079 50.81904265 -7.08203125 49.0078125 C-7.10481644 48.17452423 -7.12760162 47.34123596 -7.15107727 46.48269653 C-7.20976276 42.12317897 -6.90048839 39.01060305 -5 35 C-4.79641537 32.04264258 -4.79641537 32.04264258 -4.9375 29 C-5.05160381 25.11054853 -4.88505929 21.78608695 -4 18 C-3.67484966 16.52494463 -3.35073863 15.04965999 -3.02734375 13.57421875 C-2.66460492 11.94519162 -2.30130985 10.31628827 -1.9375 8.6875 C-1.75123047 7.85154297 -1.56496094 7.01558594 -1.37304688 6.15429688 C-0.91584658 4.10275711 -0.45798882 2.05136388 0 0 Z " fill="#080507" transform="translate(269,627)"/>
<path d="M0 0 C1.32 0.33 2.64 0.66 4 1 C2.74027897 3.66561759 1.37876572 5.97020238 -0.43359375 8.29296875 C-0.91223877 8.91461914 -1.39088379 9.53626953 -1.8840332 10.17675781 C-2.39667725 10.84030273 -2.90932129 11.50384766 -3.4375 12.1875 C-19.22591982 32.93867862 -32.75593242 56.0073154 -43 80 C-43.33 79.34 -43.66 78.68 -44 78 C-44.99 78 -45.98 78 -47 78 C-47.268125 78.86625 -47.53625 79.7325 -47.8125 80.625 C-48.97111987 83.91791964 -50.38209839 86.91127875 -52 90 C-53.32402585 86.02792246 -52.30701963 84.93839799 -50.5 81.22265625 C-49.66275391 79.49112305 -49.66275391 79.49112305 -48.80859375 77.72460938 C-48.36169189 76.82005005 -48.36169189 76.82005005 -47.90576172 75.8972168 C-47.02122242 74.10548827 -46.15297608 72.30574538 -45.28515625 70.50585938 C-41.9856163 63.73843559 -38.46602875 57.17266318 -34.60253906 50.71044922 C-32.41970352 47.01851744 -30.38806895 43.25081381 -28.359375 39.47265625 C-27.4064272 37.73927706 -26.38961432 36.04021129 -25.328125 34.37109375 C-23.75565455 32.01672482 -23.75565455 32.01672482 -24 29 C-23.01 28.67 -22.02 28.34 -21 28 C-19.6315066 26.48133707 -19.6315066 26.48133707 -18.3984375 24.5703125 C-17.66898926 23.50768188 -17.66898926 23.50768188 -16.92480469 22.42358398 C-16.41336914 21.66505127 -15.90193359 20.90651855 -15.375 20.125 C-10.55382881 13.11955813 -5.53134301 6.46720156 0 0 Z " fill="#272526" transform="translate(338,490)"/>
<path d="M0 0 C1.28132812 0.10183594 2.56265625 0.20367188 3.8828125 0.30859375 C4.87023437 0.39238281 5.85765625 0.47617187 6.875 0.5625 C6.875 0.8925 6.875 1.2225 6.875 1.5625 C5.225 1.5625 3.575 1.5625 1.875 1.5625 C1.875 2.2225 1.875 2.8825 1.875 3.5625 C2.535 3.8925 3.195 4.2225 3.875 4.5625 C3.09125 4.500625 2.3075 4.43875 1.5 4.375 C0.200625 4.4678125 0.200625 4.4678125 -1.125 4.5625 C-2.115 6.0475 -2.115 6.0475 -3.125 7.5625 C-2.465 7.8925 -1.805 8.2225 -1.125 8.5625 C-1.125 9.8825 -1.125 11.2025 -1.125 12.5625 C-0.465 12.8925 0.195 13.2225 0.875 13.5625 C1.5 15.625 1.5 15.625 1.875 17.5625 C0.885 17.5625 -0.105 17.5625 -1.125 17.5625 C-0.465 18.5525 0.195 19.5425 0.875 20.5625 C0.215 20.8925 -0.445 21.2225 -1.125 21.5625 C-1.785 21.2325 -2.445 20.9025 -3.125 20.5625 C-3.785 21.2225 -4.445 21.8825 -5.125 22.5625 C-8.85006964 16.18997015 -11.19308402 11.02382978 -10.125 3.5625 C-9.795 2.5725 -9.465 1.5825 -9.125 0.5625 C-6.07230154 -0.96384923 -3.36654311 -0.27544444 0 0 Z " fill="#0C0A0D" transform="translate(748.125,777.4375)"/>
<path d="M0 0 C1.32 0.33 2.64 0.66 4 1 C2.25477062 5.05214179 -0.4228157 8.30603961 -3.125 11.75 C-3.59292969 12.35199219 -4.06085938 12.95398438 -4.54296875 13.57421875 C-5.69225007 15.05186616 -6.84571235 16.52626005 -8 18 C-8.33 17.34 -8.66 16.68 -9 16 C-9.99 16.33 -10.98 16.66 -12 17 C-10.53416665 12.45928635 -7.95468267 9.23733031 -4.875 5.6875 C-4.40707031 5.13771484 -3.93914062 4.58792969 -3.45703125 4.02148438 C-2.31047517 2.67603591 -1.15602549 1.337321 0 0 Z " fill="#232123" transform="translate(338,490)"/>
<path d="M0 0 C1.24028363 4.13692048 0.5373616 7.03859791 -0.4375 11.25 C-0.72496094 12.51328125 -1.01242187 13.7765625 -1.30859375 15.078125 C-1.53675781 16.04234375 -1.76492188 17.0065625 -2 18 C-0.68 18.33 0.64 18.66 2 19 C2 17.35 2 15.7 2 14 C2.33 14 2.66 14 3 14 C2.67 18.29 2.34 22.58 2 27 C1.34 26.34 0.68 25.68 0 25 C-0.33 25.99 -0.66 26.98 -1 28 C-3.0625 28.6875 -3.0625 28.6875 -5 29 C-5.16349111 21.96988229 -3.46092827 15.50793682 -1.9375 8.6875 C-1.75123047 7.85154297 -1.56496094 7.01558594 -1.37304688 6.15429688 C-0.91584658 4.10275711 -0.45798882 2.05136388 0 0 Z " fill="#363334" transform="translate(269,627)"/>
<path d="M0 0 C1.28132812 0.10183594 2.56265625 0.20367188 3.8828125 0.30859375 C4.87023437 0.39238281 5.85765625 0.47617187 6.875 0.5625 C6.875 0.8925 6.875 1.2225 6.875 1.5625 C5.225 1.5625 3.575 1.5625 1.875 1.5625 C1.875 2.2225 1.875 2.8825 1.875 3.5625 C2.535 3.8925 3.195 4.2225 3.875 4.5625 C3.09125 4.500625 2.3075 4.43875 1.5 4.375 C0.200625 4.4678125 0.200625 4.4678125 -1.125 4.5625 C-2.115 6.0475 -2.115 6.0475 -3.125 7.5625 C-3.785 7.5625 -4.445 7.5625 -5.125 7.5625 C-5.785 6.5725 -6.445 5.5825 -7.125 4.5625 C-8.115 4.5625 -9.105 4.5625 -10.125 4.5625 C-9.75 2.625 -9.75 2.625 -9.125 0.5625 C-6.07230154 -0.96384923 -3.36654311 -0.27544444 0 0 Z " fill="#0E0D10" transform="translate(748.125,777.4375)"/>
<path d="M0 0 C-0.45582917 4.86217784 -2.7013442 9.41682402 -6 13 C-7.32 13 -8.64 13 -10 13 C-9.17593062 8.05558372 -8.27972642 5.15175378 -4.5 1.75 C-2 0 -2 0 0 0 Z " fill="#191718" transform="translate(314,530)"/>
<path d="M0 0 C0.99 0 1.98 0 3 0 C2.46148032 5.27749285 1.22656164 9.25645564 -1 14 C-2.32 13.34 -3.64 12.68 -5 12 C-3.68938409 7.76570244 -2.05643741 3.92592596 0 0 Z " fill="#0C0A0A" transform="translate(291,568)"/>
<path d="M0 0 C4.7517398 0.43197635 6.92000054 1.32769295 10 5 C7.03 6.65 4.06 8.3 1 10 C0.37542727 6.56484998 0 3.50935186 0 0 Z M2 2 C2.66 2.66 3.32 3.32 4 4 C4 3.34 4 2.68 4 2 C3.34 2 2.68 2 2 2 Z " fill="#110F11" transform="translate(529,697)"/>
<path d="M0 0 C0.33 0 0.66 0 1 0 C1.33 4.62 1.66 9.24 2 14 C1.67 13.01 1.34 12.02 1 11 C0.34 11 -0.32 11 -1 11 C-1.33 11.99 -1.66 12.98 -2 14 C-2.99 14.495 -2.99 14.495 -4 15 C-4.33 11.37 -4.66 7.74 -5 4 C-4.67 5.32 -4.34 6.64 -4 8 C-3.01 8 -2.02 8 -1 8 C-0.67 5.36 -0.34 2.72 0 0 Z " fill="#171115" transform="translate(269,708)"/>
<path d="M0 0 C1.32 0.33 2.64 0.66 4 1 C2.70700306 3.88437779 1.34058637 5.87219421 -1 8 C-1.33 7.34 -1.66 6.68 -2 6 C-3.65 7.32 -5.3 8.64 -7 10 C-5.33248852 6.05860922 -2.77289351 3.2107188 0 0 Z " fill="#3D3C3F" transform="translate(338,490)"/>
<path d="M0 0 C1.65 0.33 3.3 0.66 5 1 C3.75 3.9375 3.75 3.9375 2 7 C0 7.75 0 7.75 -2 8 C-2.99 8.66 -3.98 9.32 -5 10 C-3.66511872 6.40608886 -2.03977277 3.24509304 0 0 Z " fill="#302D2D" transform="translate(313,524)"/>
<path d="M0 0 C0.66 0.33 1.32 0.66 2 1 C0.125 5.75 0.125 5.75 -1 8 C-3.5625 8.625 -3.5625 8.625 -6 9 C-4.47291037 5.56404834 -2.40072955 2.88087546 0 0 Z " fill="#100D0D" transform="translate(320,517)"/>
<path d="M0 0 C1.32 0 2.64 0 4 0 C3.88637738 1.4800841 3.75877092 2.95910074 3.625 4.4375 C3.52058594 5.67306641 3.52058594 5.67306641 3.4140625 6.93359375 C3.27742187 7.61550781 3.14078125 8.29742188 3 9 C2.01 9.495 2.01 9.495 1 10 C0.37542727 6.56484998 0 3.50935186 0 0 Z " fill="#232023" transform="translate(529,697)"/>
<path d="M0 0 C0.66 0.33 1.32 0.66 2 1 C2.625 3.0625 2.625 3.0625 3 5 C2.01 5.33 1.02 5.66 0 6 C-1.5 4.625 -1.5 4.625 -3 3 C-3 2.34 -3 1.68 -3 1 C-2.01 0.67 -1.02 0.34 0 0 Z " fill="#0A090A" transform="translate(710,841)"/>
<path d="M0 0 C1.98 0 3.96 0 6 0 C4.515 2.475 4.515 2.475 3 5 C1.35 4.67 -0.3 4.34 -2 4 C-1.34 2.68 -0.68 1.36 0 0 Z " fill="#242224" transform="translate(765,780)"/>
<path d="M0 0 C0.33 0 0.66 0 1 0 C1 3.96 1 7.92 1 12 C-2 8 -2 8 -1.85546875 5.859375 C-1.23697917 3.90625 -0.61848958 1.953125 0 0 Z " fill="#130C0E" transform="translate(269,650)"/>
<path d="M0 0 C0.33 1.32 0.66 2.64 1 4 C-1.97 6.475 -1.97 6.475 -5 9 C-5 7.35 -5 5.7 -5 4 C-4.01 3.67 -3.02 3.34 -2 3 C-1.34 2.01 -0.68 1.02 0 0 Z " fill="#464143" transform="translate(319,515)"/>
<path d="M0 0 C1.65 0.33 3.3 0.66 5 1 C5.33 1.99 5.66 2.98 6 4 C3.36 3.67 0.72 3.34 -2 3 C-1.34 2.01 -0.68 1.02 0 0 Z " fill="#120E11" transform="translate(534,892)"/>
<path d="M0 0 C2.97 0 5.94 0 9 0 C9 0.33 9 0.66 9 1 C7.35 1 5.7 1 4 1 C4 1.66 4 2.32 4 3 C4.66 3.33 5.32 3.66 6 4 C4.35 4 2.7 4 1 4 C0.67 2.68 0.34 1.36 0 0 Z " fill="#39373A" transform="translate(746,778)"/>
<path d="M0 0 C1.32 1.65 2.64 3.3 4 5 C2.02 5.99 0.04 6.98 -2 8 C-1.47731534 5.23723823 -0.89130413 2.6739124 0 0 Z " fill="#131013" transform="translate(555,746)"/>
</svg>
